<svg width="20" height="18" viewBox="0 0 20 18" fill="none" xmlns="http://www.w3.org/2000/svg">
<path d="M9.16699 11.5H6.66699C5.11385 11.5 4.33728 11.5 3.72471 11.7537C2.90795 12.092 2.25904 12.741 1.92073 13.5577C1.66699 14.1703 1.66699 14.9469 1.66699 16.5M12.917 1.7423C14.1386 2.23679 15.0003 3.43443 15.0003 4.83333M10.0002 16.9167L11.6878 16.5792C11.8349 16.5497 11.9085 16.535 11.9771 16.5081C12.038 16.4842 12.0959 16.4533 12.1495 16.4159C12.21 16.3737 12.263 16.3206 12.3691 16.2145L17.917 10.6667C18.3773 10.2065 18.3773 9.46022 17.917 8.99998C17.4568 8.53975 16.7106 8.53976 16.2503 9L10.7024 14.5479C10.5963 14.654 10.5433 14.707 10.5011 14.7675C10.4637 14.8211 10.4327 14.879 10.4089 14.9399C10.382 15.0085 10.3672 15.082 10.3378 15.2292L10.0002 16.9167ZM11.2503 4.83333C11.2503 6.67428 9.75794 8.16667 7.91699 8.16667C6.07604 8.16667 4.58366 6.67428 4.58366 4.83333C4.58366 2.99238 6.07604 1.5 7.91699 1.5C9.75794 1.5 11.2503 2.99238 11.2503 4.83333Z" stroke="#717680" stroke-width="1.67" stroke-linecap="round" stroke-linejoin="round"/>
</svg>
