<svg width="16" height="20" viewBox="0 0 16 20" fill="none" xmlns="http://www.w3.org/2000/svg">
<path d="M4.55722 12.8832L3.83333 18.3333L7.657 16.0391C7.78171 15.9643 7.84406 15.9269 7.91063 15.9122C7.96951 15.8993 8.03049 15.8993 8.08937 15.9122C8.15593 15.9269 8.21829 15.9643 8.343 16.0391L12.1667 18.3333L11.4433 12.8809M11.6882 3.54069C11.8169 3.85196 12.064 4.09938 12.375 4.22855L13.4658 4.68036C13.7771 4.8093 14.0244 5.05662 14.1533 5.36791C14.2822 5.6792 14.2822 6.02897 14.1533 6.34026L13.7018 7.43025C13.5728 7.74168 13.5726 8.0918 13.7022 8.40308L14.1529 9.49275C14.2168 9.64693 14.2498 9.81219 14.2498 9.97909C14.2498 10.146 14.2169 10.3113 14.1531 10.4655C14.0892 10.6197 13.9956 10.7598 13.8775 10.8778C13.7595 10.9958 13.6194 11.0894 13.4652 11.1532L12.3752 11.6047C12.064 11.7334 11.8166 11.9804 11.6874 12.2915L11.2356 13.3823C11.1067 13.6936 10.8593 13.9409 10.5481 14.0698C10.2368 14.1988 9.88704 14.1988 9.57576 14.0698L8.4858 13.6183C8.17451 13.4897 7.82489 13.49 7.5138 13.6191L6.42306 14.0702C6.11195 14.1989 5.76251 14.1988 5.45148 14.0699C5.14045 13.9411 4.89328 13.6941 4.76426 13.3831L4.31232 12.292C4.18363 11.9807 3.93659 11.7333 3.62553 11.6041L2.53479 11.1523C2.22365 11.0234 1.97641 10.7763 1.84743 10.4652C1.71844 10.1541 1.71827 9.80446 1.84694 9.49322L2.29841 8.40322C2.42703 8.09192 2.42677 7.74228 2.29768 7.43118L1.84686 6.33962C1.78294 6.18544 1.75003 6.02018 1.75 5.85327C1.74997 5.68637 1.78283 5.5211 1.8467 5.3669C1.91057 5.2127 2.0042 5.0726 2.12223 4.9546C2.24026 4.8366 2.38039 4.74301 2.5346 4.67919L3.62456 4.2277C3.93554 4.09911 4.1828 3.85238 4.31206 3.54166L4.76386 2.45088C4.8928 2.13959 5.14011 1.89227 5.45139 1.76333C5.76267 1.63439 6.11242 1.63439 6.4237 1.76333L7.51365 2.21482C7.82494 2.34345 8.17456 2.34318 8.48566 2.21409L9.57686 1.76403C9.88809 1.63516 10.2378 1.63519 10.549 1.76411C10.8602 1.89302 11.1075 2.14027 11.2364 2.45148L11.6884 3.54258L11.6882 3.54069Z" stroke="#717680" stroke-width="1.67" stroke-linecap="round" stroke-linejoin="round"/>
</svg>
