<svg width="18" height="16" viewBox="0 0 18 16" fill="none" xmlns="http://www.w3.org/2000/svg">
<path d="M12.3333 6.33337C13.1099 6.33337 13.4982 6.33337 13.8045 6.20651C14.2129 6.03735 14.5373 5.71289 14.7065 5.30451C14.8333 4.99823 14.8333 4.60994 14.8333 3.83337C14.8333 3.05681 14.8333 2.66852 14.7065 2.36224C14.5373 1.95386 14.2129 1.6294 13.8045 1.46024C13.4982 1.33337 13.1099 1.33337 12.3333 1.33337L5.66667 1.33337C4.8901 1.33337 4.50181 1.33337 4.19553 1.46024C3.78715 1.6294 3.46269 1.95385 3.29353 2.36223C3.16667 2.66852 3.16667 3.0568 3.16667 3.83337C3.16667 4.60994 3.16667 4.99823 3.29353 5.30451C3.46269 5.71289 3.78715 6.03735 4.19553 6.20651C4.50181 6.33337 4.8901 6.33337 5.66667 6.33337L12.3333 6.33337Z" stroke="#717680" stroke-width="1.67" stroke-linecap="round" stroke-linejoin="round"/>
<path d="M14 14.6667C14.7766 14.6667 15.1649 14.6667 15.4711 14.5398C15.8795 14.3707 16.204 14.0462 16.3731 13.6378C16.5 13.3316 16.5 12.9433 16.5 12.1667C16.5 11.3901 16.5 11.0019 16.3731 10.6956C16.204 10.2872 15.8795 9.96273 15.4711 9.79358C15.1649 9.66671 14.7766 9.66671 14 9.66671H4C3.22343 9.66671 2.83515 9.66671 2.52886 9.79357C2.12048 9.96273 1.79602 10.2872 1.62687 10.6956C1.5 11.0019 1.5 11.3901 1.5 12.1667C1.5 12.9433 1.5 13.3316 1.62687 13.6378C1.79602 14.0462 2.12048 14.3707 2.52886 14.5398C2.83515 14.6667 3.22343 14.6667 4 14.6667L14 14.6667Z" stroke="#717680" stroke-width="1.67" stroke-linecap="round" stroke-linejoin="round"/>
</svg>
