<svg width="36" height="36" viewBox="0 0 36 36" fill="none" xmlns="http://www.w3.org/2000/svg">
<g filter="url(#filter0_d_111_584)">
<rect x="1" y="0.5" width="34" height="33" rx="7" fill="url(#paint0_linear_111_584)"/>
<path d="M8.29938 15.4758C8.83809 13.3412 10.0857 11.4455 11.8437 10.0907C13.6016 8.73597 15.7687 8 18 8C20.2313 8 22.3984 8.73597 24.1563 10.0907C25.9143 11.4455 27.1619 13.3412 27.7006 15.4758H26.8244C25.3463 15.4544 23.8984 15.8899 22.6842 16.7213C22.6141 16.7713 22.5409 16.817 22.4651 16.858H22.3629C22.2871 16.817 22.2139 16.7713 22.1438 16.7213C20.9189 15.9092 19.4762 15.4754 18 15.4754C16.5238 15.4754 15.0811 15.9092 13.8562 16.7213C13.7861 16.7713 13.7129 16.817 13.6371 16.858H13.5349C13.4591 16.817 13.3859 16.7713 13.3158 16.7213C12.1016 15.8899 10.6537 15.4544 9.17561 15.4758H8.29938ZM25.2472 19.9896C25.697 19.6442 26.2545 19.4635 26.8244 19.4784H28V17.1676H26.8244C25.8205 17.1556 24.8396 17.4637 24.0277 18.0459C23.5709 18.3779 23.0182 18.5571 22.4505 18.5571C21.8829 18.5571 21.3302 18.3779 20.8733 18.0459C20.0408 17.4746 19.0508 17.1682 18.0365 17.1682C17.0222 17.1682 16.0322 17.4746 15.1997 18.0459C14.7428 18.3779 14.1901 18.5571 13.6225 18.5571C13.0548 18.5571 12.5022 18.3779 12.0453 18.0459C11.2234 17.4562 10.2284 17.1478 9.21212 17.1676H8V19.4784H9.17561C9.74553 19.4635 10.303 19.6442 10.7528 19.9896C11.5838 20.5613 12.5727 20.8678 13.586 20.8678C14.5993 20.8678 15.5882 20.5613 16.4191 19.9896C16.8695 19.6453 17.4266 19.4648 17.9963 19.4784C18.5665 19.4623 19.1244 19.6432 19.5736 19.9896C20.4061 20.5609 21.3961 20.8672 22.4104 20.8672C23.4247 20.8672 24.4147 20.5609 25.2472 19.9896ZM25.2472 24.1217C25.697 23.7764 26.2545 23.5957 26.8244 23.6106H28V21.2998H26.8244C25.8205 21.2878 24.8396 21.5959 24.0277 22.178C23.5709 22.5101 23.0182 22.6893 22.4505 22.6893C21.8829 22.6893 21.3302 22.5101 20.8733 22.178C20.0408 21.6067 19.0508 21.3005 18.0365 21.3005C17.0222 21.3005 16.0322 21.6067 15.1997 22.178C14.7428 22.5101 14.1901 22.6893 13.6225 22.6893C13.0548 22.6893 12.5022 22.5101 12.0453 22.178C11.2234 21.5884 10.2284 21.28 9.21212 21.2998H8V23.6106H9.17561C9.74553 23.5957 10.303 23.7764 10.7528 24.1217C11.5838 24.6935 12.5727 25 13.586 25C14.5993 25 15.5882 24.6935 16.4191 24.1217C16.8695 23.7775 17.4266 23.5969 17.9963 23.6106C18.5665 23.5945 19.1244 23.7753 19.5736 24.1217C20.4061 24.6931 21.3961 24.9994 22.4104 24.9994C23.4247 24.9994 24.4147 24.6931 25.2472 24.1217Z" fill="url(#paint1_linear_111_584)"/>
</g>
<defs>
<filter id="filter0_d_111_584" x="0" y="0.5" width="36" height="35" filterUnits="userSpaceOnUse" color-interpolation-filters="sRGB">
<feFlood flood-opacity="0" result="BackgroundImageFix"/>
<feColorMatrix in="SourceAlpha" type="matrix" values="0 0 0 0 0 0 0 0 0 0 0 0 0 0 0 0 0 0 127 0" result="hardAlpha"/>
<feOffset dy="1"/>
<feGaussianBlur stdDeviation="0.5"/>
<feComposite in2="hardAlpha" operator="out"/>
<feColorMatrix type="matrix" values="0 0 0 0 0 0 0 0 0 0 0 0 0 0 0 0 0 0 0.25 0"/>
<feBlend mode="normal" in2="BackgroundImageFix" result="effect1_dropShadow_111_584"/>
<feBlend mode="normal" in="SourceGraphic" in2="effect1_dropShadow_111_584" result="shape"/>
</filter>
<linearGradient id="paint0_linear_111_584" x1="18" y1="0.5" x2="17.4706" y2="120.286" gradientUnits="userSpaceOnUse">
<stop stop-color="#02635C"/>
<stop offset="1" stop-color="white"/>
</linearGradient>
<linearGradient id="paint1_linear_111_584" x1="18" y1="8" x2="18.2674" y2="49.6054" gradientUnits="userSpaceOnUse">
<stop stop-color="white"/>
<stop offset="1" stop-color="white" stop-opacity="0"/>
</linearGradient>
</defs>
</svg>
