<svg width="20" height="21" viewBox="0 0 20 21" fill="none" xmlns="http://www.w3.org/2000/svg">
<path d="M7.49984 10.5L9.1665 12.1666L12.9165 8.41663M14.9175 4.66538C15.0891 5.0804 15.4185 5.41029 15.8332 5.58252L17.2875 6.18494C17.7026 6.35686 18.0323 6.68662 18.2042 7.10167C18.3761 7.51673 18.3761 7.98308 18.2042 8.39813L17.6023 9.85146C17.4303 10.2667 17.43 10.7335 17.6028 11.1486L18.2037 12.6015C18.289 12.807 18.3328 13.0274 18.3329 13.2499C18.3329 13.4725 18.2891 13.6928 18.2039 13.8984C18.1188 14.104 17.9939 14.2908 17.8366 14.4482C17.6792 14.6055 17.4924 14.7303 17.2867 14.8154L15.8335 15.4173C15.4185 15.589 15.0886 15.9183 14.9164 16.3331L14.314 17.7875C14.142 18.2025 13.8123 18.5323 13.3973 18.7042C12.9822 18.8761 12.5159 18.8761 12.1008 18.7042L10.6476 18.1022C10.2325 17.9307 9.76636 17.9311 9.35157 18.1032L7.89725 18.7048C7.48244 18.8763 7.01651 18.8761 6.60181 18.7044C6.18711 18.5326 5.85755 18.2032 5.68551 17.7886L5.08294 16.3338C4.91134 15.9188 4.58196 15.5889 4.16721 15.4166L2.71289 14.8142C2.29803 14.6424 1.96838 14.3128 1.79641 13.898C1.62443 13.4832 1.62419 13.0171 1.79576 12.6021L2.39772 11.1488C2.56922 10.7337 2.56887 10.2675 2.39675 9.85269L1.79565 8.39728C1.71042 8.19171 1.66654 7.97136 1.6665 7.74882C1.66647 7.52628 1.71028 7.30592 1.79544 7.10032C1.8806 6.89472 2.00543 6.70792 2.16281 6.55059C2.32019 6.39325 2.50702 6.26847 2.71264 6.18338L4.16592 5.58139C4.58056 5.40994 4.91024 5.08096 5.08259 4.66667L5.68499 3.2123C5.8569 2.79725 6.18665 2.46749 6.60169 2.29557C7.01673 2.12365 7.48306 2.12365 7.8981 2.29557L9.35138 2.89756C9.76643 3.06905 10.2326 3.0687 10.6474 2.89658L12.1023 2.2965C12.5173 2.12468 12.9835 2.12471 13.3985 2.2966C13.8134 2.46849 14.1431 2.79815 14.3151 3.2131L14.9177 4.6679L14.9175 4.66538Z" stroke="#535862" stroke-width="1.66667" stroke-linecap="round" stroke-linejoin="round"/>
</svg>
