<svg width="66" height="63" viewBox="0 0 66 63" fill="none" xmlns="http://www.w3.org/2000/svg">
<g filter="url(#filter0_d_234_3241)">
<rect x="2.74219" y="0.136841" width="60.5059" height="58.7263" rx="12.4571" fill="url(#paint0_linear_234_3241)"/>
<path d="M15.732 26.7877C16.6907 22.9888 18.911 19.6153 22.0393 17.2044C25.1677 14.7935 29.0244 13.4838 32.9951 13.4838C36.9658 13.4838 40.8224 14.7935 43.9508 17.2044C47.0792 19.6153 49.2994 22.9888 50.2581 26.7877H48.6988C46.0683 26.7495 43.4918 27.5246 41.331 29.004C41.2062 29.093 41.076 29.1744 40.9411 29.2474H40.7592C40.6243 29.1744 40.4941 29.093 40.3694 29.004C38.1894 27.5588 35.622 26.7869 32.9951 26.7869C30.3681 26.7869 27.8007 27.5588 25.6207 29.004C25.496 29.093 25.3658 29.1744 25.2309 29.2474H25.049C24.9141 29.1744 24.7839 29.093 24.6591 29.004C22.4983 27.5246 19.9218 26.7495 17.2913 26.7877H15.732ZM45.892 34.8202C46.6925 34.2057 47.6846 33.8841 48.6988 33.9106H50.7909V29.7983H48.6988C46.9123 29.777 45.1668 30.3252 43.7219 31.3612C42.9089 31.9522 41.9253 32.2711 40.9152 32.2711C39.905 32.2711 38.9214 31.9522 38.1084 31.3612C36.6269 30.3445 34.8651 29.7994 33.06 29.7994C31.255 29.7994 29.4932 30.3445 28.0117 31.3612C27.1986 31.9522 26.2151 32.2711 25.2049 32.2711C24.1947 32.2711 23.2112 31.9522 22.3981 31.3612C20.9355 30.3119 19.1649 29.763 17.3563 29.7983H15.1992V33.9106H17.2913C18.3055 33.8841 19.2977 34.2057 20.0981 34.8202C21.5769 35.8377 23.3367 36.3831 25.1399 36.3831C26.9432 36.3831 28.703 35.8377 30.1818 34.8202C30.9833 34.2076 31.9746 33.8863 32.9886 33.9106C34.0032 33.8819 34.9959 34.2037 35.7954 34.8202C37.2768 35.837 39.0386 36.382 40.8437 36.382C42.6487 36.382 44.4105 35.837 45.892 34.8202ZM45.892 42.1737C46.6925 41.5592 47.6846 41.2376 48.6988 41.2642H50.7909V37.1518H48.6988C46.9123 37.1305 45.1668 37.6787 43.7219 38.7148C42.9089 39.3057 41.9253 39.6246 40.9152 39.6246C39.905 39.6246 38.9214 39.3057 38.1084 38.7148C36.6269 37.6981 34.8651 37.1531 33.06 37.1531C31.255 37.1531 29.4932 37.6981 28.0117 38.7148C27.1986 39.3057 26.2151 39.6246 25.2049 39.6246C24.1947 39.6246 23.2112 39.3057 22.3981 38.7148C20.9355 37.6655 19.1649 37.1166 17.3563 37.1518H15.1992V41.2642H17.2913C18.3055 41.2376 19.2977 41.5592 20.0981 42.1737C21.5769 43.1912 23.3367 43.7367 25.1399 43.7367C26.9432 43.7367 28.703 43.1912 30.1818 42.1737C30.9833 41.5611 31.9746 41.2398 32.9886 41.2642C34.0032 41.2355 34.9959 41.5573 35.7954 42.1737C37.2768 43.1906 39.0386 43.7355 40.8437 43.7355C42.6487 43.7355 44.4105 43.1906 45.892 42.1737Z" fill="url(#paint1_linear_234_3241)"/>
</g>
<defs>
<filter id="filter0_d_234_3241" x="0.962603" y="0.136841" width="64.065" height="62.2855" filterUnits="userSpaceOnUse" color-interpolation-filters="sRGB">
<feFlood flood-opacity="0" result="BackgroundImageFix"/>
<feColorMatrix in="SourceAlpha" type="matrix" values="0 0 0 0 0 0 0 0 0 0 0 0 0 0 0 0 0 0 127 0" result="hardAlpha"/>
<feOffset dy="1.77958"/>
<feGaussianBlur stdDeviation="0.889792"/>
<feComposite in2="hardAlpha" operator="out"/>
<feColorMatrix type="matrix" values="0 0 0 0 0 0 0 0 0 0 0 0 0 0 0 0 0 0 0.25 0"/>
<feBlend mode="normal" in2="BackgroundImageFix" result="effect1_dropShadow_234_3241"/>
<feBlend mode="normal" in="SourceGraphic" in2="effect1_dropShadow_234_3241" result="shape"/>
</filter>
<linearGradient id="paint0_linear_234_3241" x1="32.9951" y1="0.136841" x2="32.0529" y2="213.306" gradientUnits="userSpaceOnUse">
<stop stop-color="#02635C"/>
<stop offset="1" stop-color="white"/>
</linearGradient>
<linearGradient id="paint1_linear_234_3241" x1="32.9951" y1="13.4838" x2="33.4709" y2="87.5241" gradientUnits="userSpaceOnUse">
<stop stop-color="white"/>
<stop offset="1" stop-color="white" stop-opacity="0"/>
</linearGradient>
</defs>
</svg>
