<svg width="20" height="21" viewBox="0 0 20 21" fill="none" xmlns="http://www.w3.org/2000/svg">
<path d="M15.1353 2.16663H4.86437C4.47895 2.16663 4.1665 2.47907 4.1665 2.86449C4.1665 5.08553 5.0488 7.21559 6.61931 8.7861L7.6353 9.80209C7.7362 9.90298 7.78664 9.95343 7.82276 10.0019C8.04307 10.2974 8.04307 10.7025 7.82276 10.998C7.78664 11.0465 7.7362 11.0969 7.6353 11.1978L6.61931 12.2138C5.04881 13.7843 4.1665 15.9144 4.1665 18.1354C4.1665 18.5208 4.47895 18.8333 4.86437 18.8333H15.1353C15.5207 18.8333 15.8332 18.5208 15.8332 18.1354C15.8332 15.9144 14.9509 13.7843 13.3804 12.2138L12.3644 11.1978C12.2635 11.0969 12.213 11.0465 12.1769 10.998C11.9566 10.7025 11.9566 10.2974 12.1769 10.0019C12.213 9.95343 12.2635 9.90298 12.3644 9.80209L13.3804 8.7861C14.9509 7.21559 15.8332 5.08553 15.8332 2.86449C15.8332 2.47907 15.5207 2.16663 15.1353 2.16663Z" stroke="black" stroke-width="1.66667" stroke-linecap="round" stroke-linejoin="round"/>
</svg>
