<svg width="18" height="20" viewBox="0 0 18 20" fill="none" xmlns="http://www.w3.org/2000/svg">
<path d="M6.79545 17.5C7.38306 18.0186 8.15493 18.3333 9.0003 18.3333C9.84567 18.3333 10.6175 18.0186 11.2052 17.5M14.0003 6.66663V1.66663M11.5003 4.16663H16.5003M9.83363 1.73654C9.56007 1.6903 9.28141 1.66663 9.0003 1.66663C7.67422 1.66663 6.40245 2.19341 5.46477 3.13109C4.52708 4.06877 4.0003 5.34054 4.0003 6.66663C4.0003 9.24178 3.35069 11.0049 2.62502 12.1711C2.01291 13.1549 1.70685 13.6467 1.71807 13.7839C1.7305 13.9359 1.76268 13.9938 1.88511 14.0846C1.99568 14.1666 2.49413 14.1666 3.49101 14.1666H14.5096C15.5064 14.1666 16.0049 14.1666 16.1154 14.0846C16.2379 13.9938 16.27 13.9359 16.2825 13.7839C16.2937 13.6467 15.9876 13.1548 15.3755 12.1709C14.9654 11.5119 14.5797 10.6623 14.3217 9.58329" stroke="#717680" stroke-width="1.67" stroke-linecap="round" stroke-linejoin="round"/>
</svg>
