<svg width="18" height="20" viewBox="0 0 18 20" fill="none" xmlns="http://www.w3.org/2000/svg">
<path d="M6.82888 16.1426L7.31591 17.238C7.4607 17.564 7.69698 17.8411 7.9961 18.0355C8.29522 18.23 8.64434 18.3334 9.0011 18.3334C9.35786 18.3334 9.70697 18.23 10.0061 18.0355C10.3052 17.8411 10.5415 17.564 10.6863 17.238L11.1733 16.1426C11.3467 15.7539 11.6383 15.4299 12.0067 15.2167C12.3773 15.0029 12.8061 14.9118 13.2317 14.9565L14.4233 15.0834C14.778 15.1209 15.136 15.0547 15.4539 14.8928C15.7717 14.7309 16.0358 14.4803 16.2141 14.1713C16.3925 13.8625 16.4776 13.5086 16.4588 13.1524C16.4401 12.7963 16.3184 12.4532 16.1085 12.1648L15.4029 11.1954C15.1517 10.8476 15.0175 10.429 15.0196 10C15.0195 9.57218 15.155 9.15531 15.4067 8.80928L16.1122 7.83984C16.3221 7.55148 16.4438 7.20841 16.4625 6.85225C16.4813 6.49608 16.3962 6.14214 16.2178 5.83335C16.0395 5.52438 15.7754 5.27376 15.4576 5.11188C15.1397 4.94999 14.7817 4.8838 14.427 4.92132L13.2354 5.04817C12.8098 5.09286 12.381 5.00179 12.0104 4.78798C11.6413 4.57356 11.3496 4.24782 11.177 3.85743L10.6863 2.76206C10.5415 2.436 10.3052 2.15895 10.0061 1.96452C9.70697 1.77009 9.35786 1.66663 9.0011 1.66669C8.64434 1.66663 8.29522 1.77009 7.9961 1.96452C7.69698 2.15895 7.4607 2.436 7.31591 2.76206L6.82888 3.85743C6.65632 4.24782 6.3646 4.57356 5.99554 4.78798C5.62489 5.00179 5.1961 5.09286 4.77054 5.04817L3.57517 4.92132C3.22045 4.8838 2.86246 4.94999 2.5446 5.11188C2.22675 5.27376 1.96269 5.52438 1.78443 5.83335C1.60595 6.14214 1.52092 6.49608 1.53965 6.85225C1.55839 7.20841 1.68009 7.55148 1.88999 7.83984L2.59554 8.80928C2.84716 9.15531 2.98266 9.57218 2.98258 10C2.98266 10.4279 2.84716 10.8447 2.59554 11.1908L1.88999 12.1602C1.68009 12.4486 1.55839 12.7916 1.53965 13.1478C1.52092 13.504 1.60595 13.8579 1.78443 14.1667C1.96286 14.4755 2.22696 14.726 2.54476 14.8878C2.86257 15.0497 3.22047 15.116 3.57517 15.0787L4.76684 14.9519C5.1924 14.9072 5.62119 14.9983 5.99184 15.2121C6.36228 15.4259 6.65535 15.7517 6.82888 16.1426Z" stroke="#717680" stroke-width="1.67" stroke-linecap="round" stroke-linejoin="round"/>
<path d="M8.99961 12.5C10.3803 12.5 11.4996 11.3807 11.4996 10C11.4996 8.61931 10.3803 7.50002 8.99961 7.50002C7.6189 7.50002 6.49961 8.61931 6.49961 10C6.49961 11.3807 7.6189 12.5 8.99961 12.5Z" stroke="#717680" stroke-width="1.67" stroke-linecap="round" stroke-linejoin="round"/>
</svg>
