<svg width="20" height="20" viewBox="0 0 20 20" fill="none" xmlns="http://www.w3.org/2000/svg">
<path d="M7.05404 7.05375L4.10777 4.10748M4.10777 15.8926L7.05406 12.9463M12.9466 12.9463L15.8929 15.8926M15.8929 4.10744L12.9466 7.05373M18.3337 10C18.3337 14.6024 14.6027 18.3334 10.0003 18.3334C5.39795 18.3334 1.66699 14.6024 1.66699 10C1.66699 5.39765 5.39795 1.66669 10.0003 1.66669C14.6027 1.66669 18.3337 5.39765 18.3337 10ZM14.167 10C14.167 12.3012 12.3015 14.1667 10.0003 14.1667C7.69914 14.1667 5.83366 12.3012 5.83366 10C5.83366 7.69883 7.69914 5.83335 10.0003 5.83335C12.3015 5.83335 14.167 7.69883 14.167 10Z" stroke="#717680" stroke-width="1.67" stroke-linecap="round" stroke-linejoin="round"/>
</svg>
